# xmcd
#
# Track frame offsets:
# 150
# 12036
# 24688
# 36533
#
# Disc length: 596 seconds
#
#
# Revision: 0
# Processed by: cddbd v1.5.1PL2 Copyright (c) Steve Scherf et al.
# Submitted via: FreeRIP 2.91 
#
DISCID=2a025204
DTITLE=Gaucho and Gauchinho - Gaucho and Gauchinho
DYEAR=1964
DGENRE=sesrtanejo
TTITLE0=Zé Boiadeiro
TTITLE1=Triste Saudade
TTITLE2=Recordação de Boiadeiro
TTITLE3=Sou Rio Grandense
EXTD=
EXTT0=
EXTT1=
EXTT2=
EXTT3=
PLAYORDER=
